HIERARCHY
ROOT hip
{
  OFFSET 0 0 0
  CHANNELS 6 Xposition Yposition Zposition Zrotation Yrotation Xrotation
  JOINT abdomen
  {
    OFFSET 0 20.6881 -0.73152
    CHANNELS 3 Zrotation Xrotation Yrotation
    JOINT chest
    {
      OFFSET 0 11.7043 -0.48768
      CHANNELS 3 Zrotation Xrotation Yrotation
      JOINT neck
      {
        OFFSET 0 22.1894 -2.19456
        CHANNELS 3 Zrotation Xrotation Yrotation
        JOINT head
        {
          OFFSET -0.24384 7.07133 1.2192
          CHANNELS 3 Zrotation Xrotation Yrotation
          JOINT leftEye
          {
            OFFSET 4.14528 8.04674 8.04672
            CHANNELS 3 Zrotation Xrotation Yrotation
            End Site
            {
              OFFSET 1 0 0
            }
          }
          JOINT rightEye
          {
            OFFSET -3.6576 8.04674 8.04672
            CHANNELS 3 Zrotation Xrotation Yrotation
            End Site
            {
              OFFSET 1 0 0
            }
          }
        }
      }
      JOINT rCollar
      {
        OFFSET -2.68224 19.2634 -4.8768
        CHANNELS 3 Zrotation Xrotation Yrotation
        JOINT rShldr
        {
          OFFSET -8.77824 -1.95073 1.46304
          CHANNELS 3 Zrotation Xrotation Yrotation
          JOINT rForeArm
          {
            OFFSET -28.1742 -1.7115 0.48768
            CHANNELS 3 Zrotation Xrotation Yrotation
            JOINT rHand
            {
              OFFSET -22.5879 0.773209 7.07136
              CHANNELS 3 Zrotation Xrotation Yrotation
              JOINT rThumb1
              {
                OFFSET -1.2192 -0.487915 3.41376
                CHANNELS 3 Zrotation Xrotation Yrotation
                JOINT rThumb2
                {
                  OFFSET -3.37035 -0.52449 3.41376
                  CHANNELS 3 Zrotation Xrotation Yrotation
                  End Site
                  {
                    OFFSET -1.78271 -1.18214 1.43049
                  }
                }
              }
              JOINT rIndex1
              {
                OFFSET -7.75947 0.938293 5.60832
                CHANNELS 3 Zrotation Xrotation Yrotation
                JOINT rIndex2
                {
                  OFFSET -2.54057 -0.884171 1.56538
                  CHANNELS 3 Zrotation Xrotation Yrotation
                  End Site
                  {
                    OFFSET -1.62519 -0.234802 1.16502
                  }
                }
              }
              JOINT rMid1
              {
                OFFSET -8.24714 1.18213 3.41376
                CHANNELS 3 Zrotation Xrotation Yrotation
                JOINT rMid2
                {
                  OFFSET -3.10165 -0.590103 1.0647
                  CHANNELS 3 Zrotation Xrotation Yrotation
                  End Site
                  {
                    OFFSET -2.48547 -0.328903 0.83742
                  }
                }
              }
              JOINT rRing1
              {
                OFFSET -8.82822 0.546677 1.51678
                CHANNELS 3 Zrotation Xrotation Yrotation
                JOINT rRing2
                {
                  OFFSET -2.60934 -0.819778 -0.0198488
                  CHANNELS 3 Zrotation Xrotation Yrotation
                  End Site
                  {
                    OFFSET -2.33842 -0.294052 0.168128
                  }
                }
              }
              JOINT rPinky1
              {
                OFFSET -8.27202 -0.0477905 -0.4584
                CHANNELS 3 Zrotation Xrotation Yrotation
                JOINT rPinky2
                {
                  OFFSET -1.82734 -0.647385 -0.700984
                  CHANNELS 3 Zrotation Xrotation Yrotation
                  End Site
                  {
                    OFFSET -1.69225 -0.51767 -0.607171
                  }
                }
              }
            }
          }
        }
      }
      JOINT lCollar
      {
        OFFSET 2.68224 19.2634 -4.8768
        CHANNELS 3 Zrotation Xrotation Yrotation
        JOINT lShldr
        {
          OFFSET 8.77824 -1.95073 1.46304
          CHANNELS 3 Zrotation Xrotation Yrotation
          JOINT lForeArm
          {
            OFFSET 28.1742 -1.7115 0.48768
            CHANNELS 3 Zrotation Xrotation Yrotation
            JOINT lHand
            {
              OFFSET 22.5879 0.773209 7.07136
              CHANNELS 3 Zrotation Xrotation Yrotation
              JOINT lThumb1
              {
                OFFSET 1.2192 -0.487915 3.41376
                CHANNELS 3 Zrotation Xrotation Yrotation
                JOINT lThumb2
                {
                  OFFSET 3.37035 -0.52449 3.41376
                  CHANNELS 3 Zrotation Xrotation Yrotation
                  End Site
                  {
                    OFFSET 1.78271 -1.18214 1.43049
                  }
                }
              }
              JOINT lIndex1
              {
                OFFSET 7.75947 0.938293 5.60832
                CHANNELS 3 Zrotation Xrotation Yrotation
                JOINT lIndex2
                {
                  OFFSET 2.54057 -0.884171 1.56538
                  CHANNELS 3 Zrotation Xrotation Yrotation
                  End Site
                  {
                    OFFSET 1.62519 -0.234802 1.16502
                  }
                }
              }
              JOINT lMid1
              {
                OFFSET 8.24714 1.18213 3.41376
                CHANNELS 3 Zrotation Xrotation Yrotation
                JOINT lMid2
                {
                  OFFSET 3.10165 -0.590103 1.0647
                  CHANNELS 3 Zrotation Xrotation Yrotation
                  End Site
                  {
                    OFFSET 2.48547 -0.328903 0.83742
                  }
                }
              }
              JOINT lRing1
              {
                OFFSET 8.82822 0.546677 1.51678
                CHANNELS 3 Zrotation Xrotation Yrotation
                JOINT lRing2
                {
                  OFFSET 2.60934 -0.819778 -0.0198488
                  CHANNELS 3 Zrotation Xrotation Yrotation
                  End Site
                  {
                    OFFSET 2.33842 -0.294052 0.168128
                  }
                }
              }
              JOINT lPinky1
              {
                OFFSET 8.27202 -0.0477905 -0.4584
                CHANNELS 3 Zrotation Xrotation Yrotation
                JOINT lPinky2
                {
                  OFFSET 1.82734 -0.647385 -0.700984
                  CHANNELS 3 Zrotation Xrotation Yrotation
                  End Site
                  {
                    OFFSET 1.69225 -0.51767 -0.607171
                  }
                }
              }
            }
          }
        }
      }
    }
  }
  JOINT rButtock
  {
    OFFSET -8.77824 4.35084 1.2192
    CHANNELS 3 Zrotation Xrotation Yrotation
    JOINT rThigh
    {
      OFFSET 0 -1.70687 -2.19456
      CHANNELS 3 Zrotation Xrotation Yrotation
      JOINT rShin
      {
        OFFSET 0 -36.8199 0.73152
        CHANNELS 3 Zrotation Xrotation Yrotation
        JOINT rFoot
        {
          OFFSET 0.73152 -45.1104 -5.12064
          CHANNELS 3 Zrotation Xrotation Yrotation
          End Site
          {
            OFFSET -1.1221 -3.69964 12.103
          }
        }
      }
    }
  }
  JOINT lButtock
  {
    OFFSET 8.77824 4.35084 1.2192
    CHANNELS 3 Zrotation Xrotation Yrotation
    JOINT lThigh
    {
      OFFSET 0 -1.70687 -2.19456
      CHANNELS 3 Zrotation Xrotation Yrotation
      JOINT lShin
      {
        OFFSET 0 -36.8199 0.73152
        CHANNELS 3 Zrotation Xrotation Yrotation
        JOINT lFoot
        {
          OFFSET -0.73152 -45.1104 -5.12064
          CHANNELS 3 Zrotation Xrotation Yrotation
          End Site
          {
            OFFSET 1.1221 -3.69964 12.103
          }
        }
      }
    }
  }
}
MOTION
Frames:	4
Frame Time:	0.03333
-0.00741411698319595 61.92388837392628 0.08569422136962451 -3.1393392086029053 -1.5347459316253662 8.151412010192871 -2.5194828510284424 14.400050163269043 3.8477025032043457 2.728499412536621 -9.623164176940918 1.2393563985824585 -4.942800045013428 14.467206954956055 -3.7779674530029297 9.057209014892578 -22.240249633789062 -5.416938304901123 -0.014070197939872742 0.054975006729364395 0.019361963495612144 -0.003895602421835065 0.01237589679658413 0.028614412993192673 0.04189004376530647 -0.04566919058561325 -0.015435048379004002 46.248294830322266 39.753204345703125 18.183658599853516 -25.674240112304688 -26.26766014099121 68.380615234375 -1.5601365566253662 -10.081137657165527 -1.5295298099517822 -0.07420915365219116 -0.07386510074138641 -0.0034675151109695435 -0.004446068312972784 -0.04221053794026375 0.006129356566816568 -0.016631921753287315 -0.03144775703549385 0.09295979887247086 7.763070106506348 5.492491245269775 0.44172170758247375 -0.02949705719947815 0.0642654299736023 -0.025102339684963226 2.884054660797119 0.949662446975708 0.07952917367219925 -0.021682044491171837 0.05091079697012901 -0.0327635295689106 10.2783784866333 0.7190642356872559 -0.06797301769256592 -0.025848466902971268 -0.030471254140138626 -0.021814648061990738 2.2574563026428223 -0.7712170481681824 -0.2147686779499054 -0.009751228615641594 0.051568277180194855 0.05487987771630287 -54.741737365722656 40.60767364501953 -25.867002487182617 25.01801109313965 -23.948131561279297 -65.54973602294922 2.0108072757720947 -14.684825897216797 2.1402039527893066 0.03872774541378021 0.07442445307970047 0.00019515676831360906 -0.061815183609724045 -0.0081414133310318 -0.05785314738750458 0.04563824459910393 -0.049099136143922806 0.03227826952934265 -7.784302711486816 5.458874225616455 -0.4494294226169586 -0.005568148568272591 -0.024907391518354416 0.041070494800806046 -2.8743653297424316 0.9643681049346924 -0.11384543031454086 -0.0025946402456611395 0.032650526612997055 -0.0434979647397995 -10.329730033874512 0.7314653396606445 -0.0593407116830349 0.07666672021150589 0.03579002246260643 -0.11924879252910614 -2.250375509262085 -0.7251932621002197 0.120773546397686 0.07229622453451157 -0.0344308502972126 0.06284558773040771 -24.624481201171875 -42.08781051635742 -18.688982009887695 -1.397836446762085 65.07266998291016 2.5466322898864746 -4.652091026306152 -11.725915908813477 -9.867366790771484 -0.019264256581664085 0.023089366033673286 0.028771566227078438 29.61187744140625 -42.799354553222656 20.625898361206055 1.368313193321228 66.0533676147461 -2.529050350189209 4.981841087341309 -11.990592956542969 13.31662368774414
-0.005124135981390504 62.01086400281723 0.1702288046842278 -3.29902982711792 -0.7248977422714233 8.729269027709961 -2.445669174194336 14.292914390563965 3.617400646209717 2.6385254859924316 -9.593756675720215 1.099409580230713 -4.826042652130127 14.438061714172363 -3.744462013244629 8.95036506652832 -22.25893211364746 -5.37518835067749 -0.01751631870865822 0.0845402404665947 0.00749108986929059 -0.06644073128700256 0.07628819346427917 0.018128996714949608 -0.008591054007411003 -0.08007080107927322 0.0017395996255800128 46.09303283691406 39.51591873168945 18.671859741210938 -25.64444923400879 -26.237680435180664 68.36036682128906 -1.5778377056121826 -10.461624145507812 -1.562863826751709 -0.13976648449897766 -0.12821361422538757 0.036752693355083466 -0.060505229979753494 -0.07421508431434631 0.010817989706993103 -0.012831021100282669 -0.049336232244968414 0.16616447269916534 7.7241387367248535 5.558506011962891 0.4561918377876282 0.006474771536886692 0.014943333342671394 -0.038261547684669495 2.821145534515381 0.9345360398292542 0.0620802640914917 -0.018263477832078934 0.07769063860177994 -0.042405739426612854 10.292326927185059 0.678621768951416 -0.1342533677816391 0.0034335991367697716 -0.04317059740424156 -0.010153837502002716 2.3139586448669434 -0.8072483539581299 -0.2572596073150635 -0.044362377375364304 0.13418875634670258 0.07285168021917343 -54.74017333984375 40.326446533203125 -25.877853393554688 25.003385543823242 -24.074079513549805 -65.8788833618164 1.9770716428756714 -14.76488971710205 2.1766419410705566 0.05845993384718895 0.06793726980686188 0.06443974375724792 -0.017633339390158653 0.030181150883436203 -0.14973174035549164 0.0506339967250824 -0.02765658311545849 0.038735516369342804 -7.796412944793701 5.438597202301025 -0.5024276971817017 -0.011651379987597466 -0.11261484771966934 0.08825721591711044 -2.870107412338257 0.9225202798843384 -0.12193240970373154 0.01693432591855526 0.05310983583331108 -0.02149537019431591 -10.339469909667969 0.7871704697608948 -0.10237584263086319 0.13540953397750854 0.062193866819143295 -0.199768528342247 -2.270479917526245 -0.6934630870819092 0.08282018452882767 0.1517537236213684 -0.048552222549915314 0.12966516613960266 -24.652971267700195 -41.918365478515625 -18.718889236450195 -1.4655226469039917 65.034912109375 2.419682264328003 -4.593684673309326 -11.256278991699219 -9.793782234191895 -0.04878685995936394 0.051835015416145325 0.04983432963490486 29.551870346069336 -42.61717224121094 20.402379989624023 1.359322190284729 65.99415588378906 -2.446418285369873 5.077315807342529 -11.500303268432617 13.211504936218262
0.14435674179930708 75.52637403054676 1.0609549482843543 -11.287060737609863 0.198951855301857 -6.203450679779053 8.031837463378906 22.938331604003906 3.7867650985717773 1.627475619316101 -9.401677131652832 2.306347131729126 -4.466154098510742 14.472543716430664 -4.386606693267822 8.03193187713623 -25.455642700195312 -6.467723846435547 -0.058363787829875946 0.016064686700701714 -0.1917431503534317 -0.11467979103326797 0.14262694120407104 0.02956533432006836 0.486563116312027 -0.12046942114830017 0.0017898494843393564 33.451904296875 35.324520111083984 30.865964889526367 -26.524642944335938 -27.32528305053711 65.26998901367188 -0.30679652094841003 6.737398624420166 1.2325520515441895 -0.3077024221420288 -0.29702648520469666 -0.12334540486335754 0.2806604206562042 -0.26309263706207275 0.006774770095944405 -0.07887139171361923 -0.23503325879573822 0.29645994305610657 7.896843433380127 5.58525276184082 0.649142324924469 -0.14680397510528564 0.23412109911441803 -0.317316472530365 2.6336679458618164 1.2911063432693481 -0.210358664393425 -0.12844082713127136 0.06556357443332672 -0.47691094875335693 10.298625946044922 0.8876151442527771 -0.621449887752533 -0.10313288122415543 0.20559823513031006 0.18233978748321533 2.2403452396392822 -1.0630422830581665 -0.35350948572158813 0.023486444726586342 0.3879740536212921 0.13810881972312927 -51.9140510559082 40.6905517578125 -32.40581512451172 27.524044036865234 -29.983898162841797 -69.41814422607422 0.8065512776374817 -25.683382034301758 3.871417284011841 0.1655871570110321 0.4193967580795288 0.16040804982185364 -0.31759917736053467 -0.38283979892730713 -0.0900072306394577 0.46146267652511597 -0.2525392770767212 0.4015134274959564 -7.919168949127197 5.209224700927734 -0.37435799837112427 0.048134781420230865 -0.027362467721104622 0.3142370283603668 -2.7266621589660645 0.8747262358665466 -0.5194317698478699 0.12325403094291687 0.38141384720802307 -0.42571523785591125 -10.425180435180664 1.0155271291732788 -0.13471092283725739 0.3583516776561737 0.0882292315363884 -0.5036838054656982 -2.2422869205474854 -0.3731568157672882 0.18733328580856323 0.2771650552749634 -0.12123861163854599 0.2182299643754959 -7.377676486968994 -23.342016220092773 -11.287456512451172 -0.48208916187286377 59.23344802856445 2.295619487762451 -10.184226036071777 -12.803654670715332 -24.5451717376709 -0.5078832507133484 -0.09838652610778809 0.4916928708553314 67.06774139404297 -66.85222625732422 58.691131591796875 164.62904357910156 85.55485534667969 -164.28427124023438 1.5514142513275146 -3.8399713039398193 3.6233417987823486
0.2035734680471127 79.33857581389768 2.9467599328411196 -7.257233142852783 0.9321539998054504 -24.177871704101562 5.12456750869751 32.267948150634766 5.39509391784668 0.4035293757915497 -9.432043075561523 2.7144925594329834 -4.746426582336426 14.745537757873535 -5.853577613830566 7.440968036651611 -27.259281158447266 -8.139291763305664 0.035579193383455276 -0.033400967717170715 0.012329598888754845 -0.11766234785318375 0.11190579831600189 -0.029897835105657578 0.8588365912437439 0.165288507938385 0.26919496059417725 32.20209884643555 36.73716735839844 23.77581787109375 -26.196317672729492 -27.104951858520508 64.23016357421875 -0.11106909066438675 10.390841484069824 1.4277565479278564 -0.6944259405136108 -0.20359653234481812 -0.11628619581460953 0.39669111371040344 -0.12044095247983932 0.026562411338090897 -0.01743805967271328 0.022461676970124245 0.03322814032435417 7.961245059967041 5.791382789611816 0.10751069337129593 -0.5129411816596985 -0.3945077657699585 -0.09995429217815399 2.6194121837615967 1.2201018333435059 -0.4285290539264679 0.28732171654701233 0.013537588529288769 -0.42602017521858215 10.181185722351074 0.7605165839195251 -0.4474359154701233 -0.34544533491134644 0.38751351833343506 0.2258152812719345 2.5358800888061523 -0.9014013409614563 -0.18048661947250366 -0.024099454283714294 0.7668125033378601 -0.07747470587491989 -57.507835388183594 27.276342391967773 -22.415571212768555 27.74197006225586 -28.82866096496582 -66.00829315185547 0.3967093229293823 -24.74729347229004 3.5634043216705322 0.1934432089328766 -0.040194686502218246 0.3036920726299286 -0.21876360476016998 -0.11081144213676453 0.1974601000547409 0.24507203698158264 -0.1117032840847969 -0.04501551762223244 -7.856970310211182 5.096810340881348 -0.09089096635580063 -0.1920015960931778 0.5150701999664307 0.13587307929992676 -3.100186347961426 0.6263492107391357 -0.6805211901664734 0.5104012489318848 0.2542479634284973 0.0026648584753274918 -10.392495155334473 0.5263324975967407 -0.02900557778775692 0.4501458406448364 -0.08614807575941086 -0.4119540750980377 -2.053529977798462 -0.7470179200172424 -0.13034221529960632 -0.09314142912626266 0.17047199606895447 0.2369811087846756 -0.601980447769165 -24.765871047973633 -5.254520416259766 -1.1282892227172852 64.4320297241211 2.3859434127807617 -8.553345680236816 -14.087149620056152 -17.695632934570312 -0.4757113456726074 0.30104419589042664 0.08300095051527023 91.44559478759766 -76.72894287109375 85.67976379394531 176.70986938476562 75.20065307617188 -176.31251525878906 3.6445796489715576 -0.771884560585022 7.583308696746826
